<?xml version="1.0" encoding="utf-8"?>
<!-- Generator: Adobe Illustrator 17.0.0, SVG Export Plug-In . SVG Version: 6.00 Build 0)  -->
<!DOCTYPE svg PUBLIC "-//W3C//DTD SVG 1.1//EN" "http://www.w3.org/Graphics/SVG/1.1/DTD/svg11.dtd">
<svg version="1.1" id="Layer_1" xmlns="http://www.w3.org/2000/svg" xmlns:xlink="http://www.w3.org/1999/xlink" x="0px" y="0px"
	 width="170.068px" height="279.592px" viewBox="0 0 170.068 279.592" enable-background="new 0 0 170.068 279.592"
	 xml:space="preserve">
<path fill="none" stroke="#A1A1A1" stroke-miterlimit="10" d="M136.449,271.227c-3.535-8.08,1.2-63.127,0.695-67.419"/>
<path fill="none" stroke="#A1A1A1" stroke-miterlimit="10" d="M40.497,267.439l3.788-6.06c0,0-4.987-47.976-4.987-54.541"/>
<path fill="none" stroke="#A1A1A1" stroke-miterlimit="10" d="M91.251,255.319c2.02,0,14.393,3.03,18.938-3.788
	c4.545-6.818,18.685-24.241,18.685-24.241c-2.187,3.603,8.585-17.743,8.585-25.251c0-11.11,2.02-25.503,2.778-29.291
	c0.758-3.788,1.263-28.281,1.768-34.846c0.505-6.565,2.778-9.343,2.778-9.343s-1.01-8.838-1.01-14.14
	c0-5.303-0.253-9.09-2.778-11.11c-2.525-2.02,1.01-10.1,1.768-13.635s-4.798-8.585-2.525-13.13c2.273-4.545-8.08-4.04-8.08-4.04
	s-5.05,6.313-14.898-3.788s-10.605-0.505-10.605-0.505l-4.798,2.273l-5.303-3.283c0,0-7.323,3.535-15.403-3.03
	s-5.303,3.283-6.06,5.555C74.333,72,60.697,75.282,60.697,78.06c0,2.778-6.313-2.525-6.313-2.525l-4.798,2.02l-2.273-2.273
	l-2.273,1.768l-2.778-4.04l-6.313,1.01l-2.02,4.293c0,0-5.303,1.515-6.565,4.293c-1.263,2.778,1.515,13.13,1.515,13.13
	l-5.808,12.878c0,0,2.525,22.473,1.263,24.746c-1.263,2.273,2.778,24.746,3.283,29.796s5.05,14.645,6.313,19.19
	c1.263,4.545,2.525,18.938,4.293,21.968c2.008,3.442,3.923,17.065,12.12,25.503c8.585,8.838,16.16,19.19,16.16,19.19
	s4.798,7.828,18.938,6.818C99.583,254.814,91.251,255.319,91.251,255.319z"/>
<path fill="none" stroke="#A1A1A1" stroke-miterlimit="10" d="M93.523,123.258c0,0,1.263,4.293,2.525,4.545
	c7.165-2.999,22.726-8.585,34.593,0c-1.263-3.03-7.07-9.595-17.423-8.838C102.866,119.723,93.523,123.258,93.523,123.258z"/>
<path fill="none" stroke="#A1A1A1" stroke-miterlimit="10" d="M77.489,124.773c0,0-1.263,4.293-2.525,4.545
	c-7.165-2.999-22.726-8.585-34.593,0c1.263-3.03,7.07-9.595,17.423-8.838C68.146,121.238,77.489,124.773,77.489,124.773z"/>
<path fill="none" stroke="#A1A1A1" stroke-miterlimit="10" d="M141.752,154.822c0,0,1.01,4.545,2.778-1.01
	s2.525-12.878,3.535-15.908s2.273-7.07,4.04-1.01c1.768,6.06,3.283-5.808,2.146-7.575c-1.136-1.768-3.409-3.535-5.429-2.778
	c-2.02,0.758-6.06,6.06-6.818,11.363C141.247,143.206,141.752,154.822,141.752,154.822z"/>
<path fill="none" stroke="#A1A1A1" stroke-miterlimit="10" d="M152.862,138.535c0,0-2.273,8.964-1.263,11.489
	c1.01,2.525-2.02,11.615-2.778,13.635s-2.778,10.605-3.03,12.878c-0.253,2.273-2.02,15.403-6.565,9.343"/>
<path fill="none" stroke="#A1A1A1" stroke-miterlimit="10" d="M25.22,154.822c0,0-1.01,4.545-2.778-1.01
	c-1.768-5.555-2.525-12.878-3.535-15.908s-2.273-7.07-4.04-1.01s-4.04-5.555-2.02-8.333s3.283-2.778,5.303-2.02
	c2.02,0.758,6.06,6.06,6.818,11.363S25.22,154.822,25.22,154.822z"/>
<path fill="none" stroke="#A1A1A1" stroke-miterlimit="10" d="M14.11,138.914c0,0,3.409,8.585,2.399,11.11
	c-1.01,2.525,4.671,11.615,5.429,13.635s2.778,10.605,3.03,12.878c0.253,2.273,4.671,16.539,9.216,10.479"/>
<path fill="none" stroke="#A1A1A1" stroke-miterlimit="10" d="M154.63,131.591c0,0,3.788-4.04,2.778-10.858s-2.525-12.373,0-16.918
	c2.525-4.545,0.758-17.423-0.253-20.201c-1.01-2.778,0.253-9.343,1.768-11.11c1.515-1.768-1.263-5.05-1.768-9.343
	c-0.505-4.293-0.758-12.625-5.555-15.655s-6.313-10.1-9.09-12.625c-2.778-2.525-4.293-1.263-6.818-4.293
	c-2.525-3.03-4.798-5.808-9.343-6.313s-5.808,1.263-12.625-4.04C106.906,14.933,99.078,9.883,94.028,9.63S85.19,8.873,85.19,8.873
	s-7.575,2.02-10.858,3.03c-3.283,1.01-8.838,1.01-12.625,0.253c-3.788-0.758-10.858,5.303-13.13,7.07s-9.09,4.293-10.605,5.303
	s-4.293,5.555-6.313,6.313s-5.808,4.04-7.575,7.575s-3.03,10.353-5.05,12.12s-7.323,9.09-8.08,12.878
	c-0.758,3.788,0,12.373-0.505,13.635c-0.505,1.263-2.778,6.06-1.01,9.09s2.273,18.18,2.778,20.706
	c0.498,2.488-4.081,11.794,0.884,21.463"/>
<path fill="none" stroke="#A1A1A1" stroke-miterlimit="10" d="M128.306,134.179c0,0-8.333-5.492-14.582-4.166
	c-6.25,1.326-17.423,5.303-20.832,13.446c-3.409,8.143,1.515,17.044,1.515,17.044l-1.515,11.363"/>
<path fill="none" stroke="#A1A1A1" stroke-miterlimit="10" d="M128.685,137.967c0,0-13.825-12.878-27.46,1.326
	c0,0,3.536,0.357,9.469,2.462c5.871,2.083,11.552-3.03,15.34-4.356"/>
<path fill="none" stroke="#A1A1A1" stroke-miterlimit="10" d="M101.793,140.997c0,0,3.409,1.894,7.196,3.219
	c3.788,1.326,8.711-0.758,17.044-2.651"/>
<ellipse fill="none" stroke="#A1A1A1" stroke-miterlimit="10" cx="114.481" cy="137.115" rx="5.492" ry="4.64"/>
<ellipse fill="#B2B1B1" cx="114.292" cy="137.304" rx="1.894" ry="1.799"/>
<path fill="none" stroke="#A1A1A1" stroke-miterlimit="10" d="M43.464,134.558c0,0,8.333-5.492,14.582-4.166
	c6.25,1.326,17.423,5.303,20.832,13.446c3.409,8.143-1.515,17.044-1.515,17.044l1.515,14.14"/>
<path fill="none" stroke="#A1A1A1" stroke-miterlimit="10" d="M43.085,138.346c0,0,13.825-12.878,27.46,1.326
	c0,0-3.536,0.357-9.469,2.462c-5.871,2.083-11.552-3.03-15.34-4.356"/>
<path fill="none" stroke="#A1A1A1" stroke-miterlimit="10" d="M69.977,141.376c0,0-3.409,1.894-7.196,3.219
	c-3.788,1.326-8.711-0.758-17.044-2.651"/>
<ellipse fill="none" stroke="#A1A1A1" stroke-miterlimit="10" cx="57.289" cy="137.493" rx="5.492" ry="4.64"/>
<ellipse fill="#B2B1B1" cx="57.478" cy="137.683" rx="1.894" ry="1.799"/>
<path fill="none" stroke="#A1A1A1" stroke-miterlimit="10" d="M74.08,177.042c0,0-3.283,3.03-3.03,5.555
	c0.253,2.525,1.263,2.904,3.03,4.419c1.768,1.515,4.798,0.884,5.303-0.379s3.535,6.313,7.07,5.05h1.641
	c3.535,1.263,6.944-6.313,7.449-5.05s3.535,1.515,5.303,0c1.768-1.515,2.02-1.515,2.273-4.04c0.253-2.525-3.03-5.555-3.03-5.555"/>
<path fill="none" stroke="#A1A1A1" stroke-miterlimit="10" d="M111.451,204.313c0,0-10.227-1.263-14.267-2.273
	s-2.651,1.768-9.469,2.525c-2.273,0.253-6.772-2.25-8.459-2.399c-3.914-0.345-8.964,4.671-16.034,3.661c0,0-0.268,1.578,0.588,2.793
	c2.568,3.646,9.197,10.084,15.068,9.327c5.6-0.723,9.343-0.758,13.383,0s12.373-4.293,18.938-10.353L111.451,204.313z"/>
<path fill="none" stroke="#A1A1A1" stroke-miterlimit="10" d="M63.98,207.848c0.505,0.758,8.838,1.01,11.615,0.253
	c2.778-0.758,2.273,0.505,8.585,1.263c3.121,0.375,5.378,0.603,7.778,0.325c2.454-0.284,5.815-1.839,9.645-1.966
	c7.575-0.253,9.09-1.894,9.09-1.894"/>
<path fill="none" stroke="#A1A1A1" stroke-width="0.5" stroke-miterlimit="10" d="M79.781,234.721c0,0,12.304-3.281,18.866-0.82"/>
</svg>
