<?xml version="1.0" encoding="utf-8"?>
<!-- Generator: Adobe Illustrator 17.0.0, SVG Export Plug-In . SVG Version: 6.00 Build 0)  -->
<!DOCTYPE svg PUBLIC "-//W3C//DTD SVG 1.1//EN" "http://www.w3.org/Graphics/SVG/1.1/DTD/svg11.dtd">
<svg version="1.1" id="Layer_1" xmlns="http://www.w3.org/2000/svg" xmlns:xlink="http://www.w3.org/1999/xlink" x="0px" y="0px"
	 width="720px" height="540px" viewBox="0 0 720 540" enable-background="new 0 0 720 540" xml:space="preserve">
<g>
	<path opacity="0.6" fill="#6B6868" d="M360.585,284.834h-3.134c0,0-16.782,62.14-17.786,64.55c-1.793,4.304-3.467,8.01-9.325,6.336
		c-5.021-1.435-4.304-5.021-3.108-10.759l15.868-60.126v-48.687l-44.919-12.29c0,0-8.887-3.216-6.456-9.564
		c2.152-5.619,10.999-3.347,10.999-3.347l40.376,9.591h17.451h-0.001H378l40.376-9.591c0,0,8.847-2.271,10.999,3.347
		c2.431,6.348-6.456,9.564-6.456,9.564L378,236.147v48.687l15.868,60.126c1.195,5.738,1.913,9.325-3.108,10.759
		c-5.858,1.674-7.532-2.032-9.325-6.336c-1.004-2.41-17.786-64.55-17.786-64.55h-3.134H360.585z"/>
	<circle opacity="0.6" fill="#6B6868" cx="360.55" cy="199.589" r="15.293"/>
</g>
</svg>
